#!OML:ASF F:\VICON\USERDATA\INSTALL\rory3\rory3.ASF
:FULLY-SPECIFIED
:DEGREES
358
root 3.28322 18.9335 0.199153 -4.68418 28.4162 -8.43555
lowerback 3.85857 5.03598 0.951106
upperback -1.02965 6.6464 -5.7151
thorax -2.42972 3.2861 -6.83341
lowerneck -10.8876 -8.61718 -7.61332
upperneck -2.4138 -10.77 12.5358
head 2.16683 -5.00126 4.38932
rclavicle -1.31794e-013 -9.54166e-015
rhumerus 59.8387 -11.4443 -32.2484
rradius 44.4771
rwrist 48.9645
rhand -56.2134 17.0152
rfingers 7.12502
rthumb -28.5401 -10.8267
lclavicle -1.31794e-013 -9.54166e-015
lhumerus -29.6089 -4.53333 68.5096
lradius 46.9071
lwrist 21.7254
lhand -26.3569 25.7643
lfingers 7.12502
lthumb 0.201 55.744
rfemur 0.579262 10.753 19.1425
rtibia 29.7822
rfoot -3.36645 -25.2359
rtoes -9.8942
lfemur -8.08857 -14.0867 -7.3182
ltibia 23.494
lfoot -12.2502 3.19641
ltoes -7.67293
359
root 3.31547 18.9367 0.199778 -4.76962 28.0668 -8.35933
lowerback 3.97869 5.06911 0.842014
upperback -1.12918 6.67716 -5.77145
thorax -2.60235 3.29692 -6.85375
lowerneck -10.3305 -8.61455 -7.40446
upperneck -2.69851 -10.7989 12.534
head 1.98619 -5.04319 4.38048
rclavicle 3.27001e-014 -2.22639e-014
rhumerus 59.8802 -10.9938 -32.2617
rradius 44.4938
rwrist 49.0378
rhand -56.3016 16.4505
rfingers 7.12502
rthumb -28.6244 -11.3773
lclavicle 3.27001e-014 -2.22639e-014
lhumerus -29.6779 -4.69908 68.3533
lradius 47.0191
lwrist 22.0296
lhand -26.5976 25.7587
lfingers 7.12502
lthumb -0.0314341 55.7385
rfemur 0.557498 10.7 18.9242
rtibia 29.9289
rfoot -3.04815 -24.9615
rtoes -9.82794
lfemur -7.68633 -13.9522 -7.53521
ltibia 23.3508
lfoot -12.3314 3.34275
ltoes -7.50664
360
root 3.34779 18.9364 0.199167 -4.77994 27.7013 -8.22562
lowerback 4.01938 5.1161 0.666444
upperback -1.15863 6.72746 -5.79137
thorax -2.66734 3.32247 -6.78557
lowerneck -10.2109 -8.73214 -7.43427
upperneck -2.74072 -10.9616 12.6442
head 1.97965 -5.12662 4.41043
rclavicle 3.07122e-014 2.54444e-014
rhumerus 60.0807 -10.7515 -32.4466
rradius 44.5175
rwrist 48.6494
rhand -56.1329 17.2957
rfingers 7.12502
rthumb -28.4632 -10.5591
lclavicle 3.07122e-014 2.54444e-014
lhumerus -29.5886 -4.68888 68.2274
lradius 46.9771
lwrist 21.601
lhand -26.3024 25.7995
lfingers 7.12502
lthumb 0.253712 55.7791
rfemur 0.497173 10.6315 18.6246
rtibia 30.0697
rfoot -2.87176 -24.6012
rtoes -9.8522
lfemur -7.36664 -13.7998 -7.80692
ltibia 23.2529
lfoot -12.3837 3.55719
ltoes -7.46377
361
root 3.38355 18.9396 0.196054 -4.70271 27.2473 -8.14412
lowerback 3.94411 5.14342 0.623321
upperback -1.15363 6.76309 -5.80494
thorax -2.61901 3.34214 -6.76841
lowerneck -10.7186 -8.92557 -7.58793
upperneck -2.36929 -11.2164 12.8013
head 2.21411 -5.22209 4.43279
rclavicle 7.63333e-014 5.40694e-014
rhumerus 60.5383 -10.6595 -32.8886
rradius 44.5216
rwrist 48.0811
rhand -56.0769 18.2029
rfingers 7.12502
rthumb -28.4097 -9.66083
lclavicle 7.63333e-014 5.40694e-014
lhumerus -29.413 -4.55646 68.1105
lradius 46.9896
lwrist 21.3734
lhand -26.6375 26.2625
lfingers 7.12502
lthumb -0.0699719 56.2423
rfemur 0.280961 10.6141 18.3364
rtibia 30.2279
rfoot -2.89737 -24.2747
rtoes -9.5758
lfemur -7.16074 -13.6201 -8.00845
ltibia 23.1967
lfoot -12.4989 3.7917
ltoes -7.10289
362
root 3.41786 18.9441 0.190633 -4.68119 26.7827 -8.19617
lowerback 3.84694 5.18006 0.764641
upperback -1.13578 6.82231 -5.82445
thorax -2.52019 3.37246 -6.85762
lowerneck -10.9686 -9.04835 -7.56883
upperneck -2.29203 -11.3808 12.9122
head 2.2995 -5.28948 4.43776
rclavicle -9.93923e-014 6.04305e-014
rhumerus 60.9859 -10.7112 -33.5815
rradius 44.5081
rwrist 47.5814
rhand -56.0492 17.8869
rfingers 7.12502
rthumb -28.3832 -9.98127
lclavicle -9.93923e-014 6.04305e-014
lhumerus -29.1421 -4.53107 68.0376
lradius 47.0405
lwrist 21.6652
lhand -27.2177 26.7329
lfingers 7.12502
lthumb -0.63031 56.7117
rfemur 0.0473735 10.6185 18.2018
rtibia 30.3979
rfoot -2.76671 -24.0399
rtoes -9.52233
lfemur -7.0084 -13.4396 -8.06159
ltibia 23.2139
lfoot -12.6498 3.96328
ltoes -6.74348
363
root 3.44905 18.9471 0.184928 -4.60144 26.3749 -8.26781
lowerback 3.72858 5.23667 0.864428
upperback -1.17366 6.90397 -5.8377
thorax -2.46992 3.41259 -6.91941
lowerneck -10.8486 -9.1248 -7.4199
upperneck -2.52415 -11.4868 12.9501
head 2.21638 -5.3508 4.42692
rclavicle 7.66315e-014 -5.725e-014
rhumerus 61.3265 -10.8717 -34.404
rradius 44.5235
rwrist 46.9807
rhand -55.4894 17.1054
rfingers 7.12502
rthumb -27.8481 -10.8506
lclavicle 7.66315e-014 -5.725e-014
lhumerus -28.817 -4.22564 67.842
lradius 46.8236
lwrist 20.9066
lhand -26.4352 26.4467
lfingers 7.12502
lthumb 0.125453 56.4264
rfemur -0.275818 10.4332 18.04
rtibia 30.5715
rfoot -2.5995 -23.6484
rtoes -9.1345
lfemur -6.98755 -13.2761 -8.07332
ltibia 23.263
lfoot -12.7548 4.1769
ltoes -7.02002
364
root 3.47913 18.943 0.181493 -4.54947 25.9619 -8.2895
lowerback 3.65985 5.26981 0.866622
upperback -1.22029 6.9477 -5.81797
thorax -2.47661 3.43331 -6.89689
lowerneck -10.7984 -9.18993 -7.40082
upperneck -2.60425 -11.5762 13.0643
head 2.20078 -5.39599 4.45413
rclavicle 1.11121e-013 -5.40694e-014
rhumerus 61.7171 -11.0138 -35.2467
rradius 44.5019
rwrist 46.3012
rhand -55.1815 16.7209
rfingers 7.12502
rthumb -27.5537 -11.2825
lclavicle 1.11121e-013 -5.40694e-014
lhumerus -28.701 -4.27192 67.8751
lradius 46.9364
lwrist 21.7154
lhand -27.3336 26.4803
lfingers 7.12502
lthumb -0.742311 56.4587
rfemur -0.572939 10.1093 17.8039
rtibia 30.7525
rfoot -2.38388 -23.1623
rtoes -9.03828
lfemur -6.89905 -13.1396 -8.13997
ltibia 23.3119
lfoot -12.8921 4.37513
ltoes -6.91377
365
root 3.50743 18.943 0.176738 -4.50919 25.5975 -8.26346
lowerback 3.65832 5.2879 0.774862
upperback -1.2504 6.96584 -5.76955
thorax -2.52166 3.44174 -6.79747
lowerneck -10.6536 -9.24143 -7.45823
upperneck -2.81581 -11.6312 13.2138
head 2.135 -5.42924 4.51337
rclavicle 7.76254e-014 -3.49861e-014
rhumerus 62.1189 -11.1732 -36.0593
rradius 44.4323
rwrist 45.656
rhand -55.1541 16.4905
rfingers 7.12502
rthumb -27.5275 -11.5171
lclavicle 7.76254e-014 -3.49861e-014
lhumerus -28.5802 -4.19182 67.8508
lradius 46.9396
lwrist 21.7379
lhand -27.166 25.8659
lfingers 7.12502
lthumb -0.580441 55.8448
rfemur -0.821832 9.92504 17.577
rtibia 30.9334
rfoot -2.28218 -22.8561
rtoes -10.2555
lfemur -6.79938 -12.9387 -8.25396
ltibia 23.3684
lfoot -12.9985 4.49796
ltoes -6.88284
366
root 3.53601 18.9434 0.170419 -4.44096 25.3483 -8.12108
lowerback 3.73243 5.28626 0.617302
upperback -1.25786 6.95293 -5.76247
thorax -2.59201 3.43552 -6.71107
lowerneck -10.5335 -9.31755 -7.46449
upperneck -3.08076 -11.7163 13.327
head 2.05477 -5.47873 4.55185
rclavicle 2.42517e-014 -3.81667e-014
rhumerus 62.4319 -11.4225 -37.0397
rradius 44.4156
rwrist 45.3486
rhand -55.2695 16.0744
rfingers 7.12502
rthumb -27.6379 -11.9155
lclavicle 2.42517e-014 -3.81667e-014
lhumerus -28.3609 -3.87146 67.6824
lradius 46.7988
lwrist 20.6417
lhand -25.7083 25.1819
lfingers 7.12502
lthumb 0.827451 55.16
rfemur -0.970514 9.76608 17.2551
rtibia 31.0867
rfoot -2.37713 -22.581
rtoes -12.0018
lfemur -6.71625 -12.7566 -8.50189
ltibia 23.445
lfoot -13.0741 4.58276
ltoes -6.99365
367
root 3.5645 18.9428 0.168452 -4.32194 25.1381 -8.08525
lowerback 3.63856 5.27179 0.559279
upperback -1.2522 6.93317 -5.73086
thorax -2.54657 3.42752 -6.63363
lowerneck -10.6235 -9.41015 -7.5039
upperneck -3.21523 -11.8194 13.4115
head 2.04798 -5.52649 4.57392
rclavicle 8.15017e-014 -4.77083e-014
rhumerus 62.705 -11.7358 -38.2032
rradius 44.4947
rwrist 45.361
rhand -55.3466 15.7697
rfingers 7.12502
rthumb -27.7116 -12.2084
lclavicle 8.15017e-014 -4.77083e-014
lhumerus -28.2184 -4.08289 67.7444
lradius 47.0388
lwrist 21.3692
lhand -26.4824 25.9176
lfingers 7.12502
lthumb 0.0798016 55.8973
rfemur -1.16946 9.58807 17.0305
rtibia 31.1604
rfoot -2.44618 -22.3626
rtoes -11.7321
lfemur -6.76343 -12.5287 -8.6093
ltibia 23.538
lfoot -13.1285 4.60946
ltoes -7.06602
368
root 3.59198 18.9415 0.167227 -4.25193 24.9465 -8.16861
lowerback 3.49511 5.28344 0.586976
upperback -1.25321 6.95404 -5.678
thorax -2.46804 3.43929 -6.57775
lowerneck -10.5234 -9.48961 -7.44017
upperneck -3.51431 -11.9095 13.4752
head 1.9537 -5.58015 4.58681
rclavicle 4.68138e-014 -4.45278e-014
rhumerus 62.8293 -12.1042 -39.2779
rradius 44.655
rwrist 45.4378
rhand -55.5317 15.1835
rfingers 7.12502
rthumb -27.8886 -12.766
lclavicle 4.68138e-014 -4.45278e-014
lhumerus -27.9493 -3.92967 67.7084
lradius 46.9755
lwrist 20.7614
lhand -26.2508 26.3737
lfingers 7.12502
lthumb 0.303491 56.3533
rfemur -1.36255 9.37174 16.934
rtibia 31.1875
rfoot -2.34463 -22.2625
rtoes -9.7464
lfemur -6.85323 -12.2336 -8.57541
ltibia 23.635
lfoot -13.1594 4.50649
ltoes -6.95183
